<svg xmlns="http://www.w3.org/2000/svg" width="1024" height="1024" viewBox="0 0 1024 1024">
  <!-- Key shadow/extrusion (darker bottom-right edge for 3D relief) -->
  <path d="M 500 60 h 370 c 40 0 72 32 72 72 v 700 c 0 40 -32 72 -72 72 H 130 c -40 0 -72 -32 -72 -72 V 490 c 0 -40 32 -72 72 -72 h 298 V 132 c 0 -40 32 -72 72 -72 z"
        fill="#b0b0b0"/>

  <!-- Key top face -->
  <path d="M 490 48 h 370 c 40 0 72 32 72 72 v 700 c 0 40 -32 72 -72 72 H 120 c -40 0 -72 -32 -72 -72 V 478 c 0 -40 32 -72 72 -72 h 298 V 120 c 0 -40 32 -72 72 -72 z"
        fill="#f0f0f0" stroke="#909090" stroke-width="10"/>

  <!-- Inner bevel highlight -->
  <path d="M 508 78 h 334 c 28 0 50 22 50 50 v 664 c 0 28 -22 50 -50 50 H 148 c -28 0 -50 -22 -50 -50 V 496 c 0 -28 22 -50 50 -50 h 298 V 128 c 0 -28 22 -50 50 -50 z"
        fill="none" stroke="#ffffff" stroke-width="6" opacity="0.7"/>

  <!-- === FACE as key label — bottom-left of lower section === -->

  <!-- Eyes -->
  <circle cx="280" cy="595" r="18" fill="#606060"/>
  <circle cx="420" cy="595" r="18" fill="#606060"/>

  <!-- Nose — Windows logo (Bootstrap Icons, MIT) -->
  <g transform="translate(322, 637) scale(3.5)">
    <path fill="#606060" d="M6.555 1.375 0 2.237v5.45h6.555zM0 13.795l6.555.933V8.313H0zm7.278-5.4.026 6.378L16 16V8.395zM16 0 7.33 1.244v6.414H16z"/>
  </g>

  <!-- Mouth — Enter glyph ↵ -->
  <rect x="409" y="710" width="16" height="50" rx="2" fill="#606060"/>
  <rect x="275" y="744" width="150" height="16" rx="2" fill="#606060"/>
  <polygon points="281,736 281,768 253,752" fill="#606060"/>
</svg>
